<?xml version="1.0" encoding="UTF-8"?>
<svg version="1.1" xmlns="http://www.w3.org/2000/svg" width="512" height="512">
<path d="M0 0 C52.65501005 -1.33401512 109.01093048 12.34931366 151.83203125 44.06201172 C152.42709473 44.49304199 153.0221582 44.92407227 153.63525391 45.36816406 C173.96341376 60.09308144 193.77722709 76.82878201 208.83203125 97.06201172 C209.32509766 97.72168945 209.81816406 98.38136719 210.32617188 99.06103516 C217.29760014 108.426566 224.11281635 117.86744135 229.83203125 128.06201172 C230.27369629 128.84576172 230.71536133 129.62951172 231.17041016 130.43701172 C250.85744932 165.77508269 262.82543852 205.44818318 263.83203125 246.06201172 C263.85249512 246.77744141 263.87295898 247.49287109 263.89404297 248.22998047 C265.59589954 315.40408769 241.5907993 380.70550269 195.83203125 430.06201172 C186.70884518 439.65923947 177.46633618 449.13230365 166.83203125 457.06201172 C166.2095752 457.53380859 165.58711914 458.00560547 164.94580078 458.49169922 C140.84679602 476.69757174 114.71606455 491.04107026 85.83203125 500.06201172 C84.99494629 500.32852539 84.15786133 500.59503906 83.29541016 500.86962891 C17.96831191 521.45741239 -52.99371432 513.15437053 -113.48046875 481.93701172 C-133.8725259 471.11610009 -152.55954771 457.04084525 -169.16796875 441.06201172 C-170.10842041 440.16240723 -170.10842041 440.16240723 -171.06787109 439.24462891 C-180.26135245 430.40482854 -188.62842209 421.34827502 -196.16796875 411.06201172 C-196.80508789 410.20808838 -196.80508789 410.20808838 -197.45507812 409.33691406 C-238.81406473 353.85267598 -255.02663489 284.58554929 -245.390625 216.30419922 C-239.77549787 179.78705122 -226.29136573 141.93484719 -204.16796875 112.06201172 C-203.73693848 111.46694824 -203.3059082 110.87188477 -202.86181641 110.25878906 C-188.13689903 89.93062921 -171.40119846 70.11681588 -151.16796875 55.06201172 C-150.50829102 54.56894531 -149.84861328 54.07587891 -149.16894531 53.56787109 C-139.80341446 46.59644283 -130.36253912 39.78122662 -120.16796875 34.06201172 C-119.38421875 33.62034668 -118.60046875 33.17868164 -117.79296875 32.72363281 C-81.55035337 12.53266684 -41.53718655 1.18811322 0 0 Z " fill="#A015DE" transform="translate(248.16796875,-0.06201171875)"/>
<path d="M0 0 C0.67385742 0.34724121 1.34771484 0.69448242 2.04199219 1.05224609 C11.19880478 5.83748863 19.25389287 11.09848399 27 18 C27.82757813 18.69609375 28.65515625 19.3921875 29.5078125 20.109375 C53.72925925 40.91400325 70.56534698 72.59755688 73.80517578 104.41943359 C76.79920771 144.07722498 65.75633082 179.10893176 40.15234375 209.52734375 C19.9020605 232.79128076 -8.73702185 247.80097555 -39 253 C-40.10601562 253.19722656 -40.10601562 253.19722656 -41.234375 253.3984375 C-49.38558924 254.56741009 -57.79014864 254.15183581 -66 254 C-67.25296875 253.98324219 -68.5059375 253.96648437 -69.796875 253.94921875 C-79.82325524 253.5661147 -89.08803596 251.23748257 -98.72094727 248.55664062 C-103.99542842 247.26839027 -107.77102563 246.87983173 -113.078125 248.2578125 C-114.22949951 248.55107422 -115.38087402 248.84433594 -116.56713867 249.14648438 C-117.78248291 249.46939453 -118.99782715 249.79230469 -120.25 250.125 C-121.50981689 250.45048828 -122.76963379 250.77597656 -124.06762695 251.11132812 C-134.74885818 253.8864914 -145.3850808 256.80743058 -155.98974609 259.86083984 C-158.17902651 260.49054247 -160.36907151 261.11759202 -162.55981445 261.7421875 C-164.69933737 262.35226429 -166.83732647 262.96775834 -168.97338867 263.58984375 C-175.92676983 265.56929395 -182.84711466 266.95558025 -190 268 C-189.22665127 261.06021269 -187.45903705 254.38510101 -185.75 247.625 C-185.43498535 246.37146729 -185.1199707 245.11793457 -184.79541016 243.82641602 C-182.93721864 236.49908933 -180.96824236 229.22513102 -178.78759766 221.98803711 C-177.15765133 216.57462723 -175.6095326 211.14266661 -174.125 205.6875 C-173.89731934 204.87982178 -173.66963867 204.07214355 -173.43505859 203.23999023 C-173.23219238 202.48403564 -173.02932617 201.72808105 -172.8203125 200.94921875 C-172.63742676 200.28237061 -172.45454102 199.61552246 -172.26611328 198.9284668 C-171.74481094 195.15069873 -173.21786903 192.34812775 -175.0390625 189.12109375 C-191.83773853 158.72067613 -200.18922572 124.43191805 -191 90 C-190.82839355 89.32501465 -190.65678711 88.6500293 -190.47998047 87.95458984 C-181.27555929 52.06639536 -158.72632084 22.13298261 -126.81274414 3.13964844 C-119.17782778 -1.2103808 -111.39163578 -4.36210354 -103 -7 C-101.67514055 -7.44471038 -100.35094055 -7.89138931 -99.02734375 -8.33984375 C-66.71356328 -19.12530379 -30.15750792 -15.56055139 0 0 Z " fill="#FEFEFE" transform="translate(314,128)"/>
<path d="M0 0 C5.09620539 3.01237564 8.70841667 7.93775001 10.5625 13.5 C11.30299988 20.33444968 10.68882112 25.87758585 6.5625 31.5 C1.61093735 36.78010235 -2.95743621 39.51926518 -10.25 39.875 C-16.13078277 39.73498136 -20.63770602 38.10031757 -24.97265625 34.07421875 C-30.26839543 28.09914276 -30.95718792 22.46610667 -30.80859375 14.73046875 C-30.15191932 9.013945 -27.83877692 5.8106627 -23.78125 1.90625 C-17.10225513 -3.18789863 -7.58803706 -3.24785464 0 0 Z " fill="#8F14D8" transform="translate(327.4375,235.5)"/>
<path d="M0 0 C5.92037703 2.73335415 10.04643893 7.26444683 12.5390625 13.31640625 C13.47175601 20.18888472 13.20998336 25.95492903 9.03125 31.6328125 C4.8903813 36.30483975 0.66665302 39.77865678 -5.6796875 40.60546875 C-12.38972126 40.99895838 -17.21902986 39.55985529 -22.4609375 35.31640625 C-27.18418482 30.63211355 -28.84953714 26.32586808 -29.0859375 19.69140625 C-28.73967085 13.08156069 -27.52526233 9.31248331 -22.70703125 4.6015625 C-15.98920468 -1.35893081 -8.87563824 -2.46545507 0 0 Z " fill="#A218DF" transform="translate(262.4609375,234.68359375)"/>
<path d="M0 0 C5.28449966 2.76073637 9.92177587 7.69892136 11.8046875 13.34765625 C12.63869426 20.96984458 12.62966819 27.26880762 7.765625 33.46875 C2.90876442 38.12243514 -2.60496788 40.56973557 -9.3203125 40.97265625 C-15.34131973 40.63237955 -19.52207048 38.00729398 -23.73046875 33.8203125 C-28.70814205 28.11703085 -29.70535982 23.84685662 -29.578125 16.39453125 C-28.83801556 10.50386427 -25.88208021 6.91100193 -21.6328125 2.97265625 C-15.05999239 -1.40922382 -7.71232333 -2.29174021 0 0 Z " fill="#B61DE6" transform="translate(200.1953125,234.65234375)"/>
</svg>
